<?xml version="1.0" encoding="utf-8"?>
<!-- Generator: Adobe Illustrator 23.0.4, SVG Export Plug-In . SVG Version: 6.00 Build 0)  -->
<svg version="1.1" id="Layer_1" xmlns:figma="http://www.figma.com/figma/ns"
	 xmlns="http://www.w3.org/2000/svg" xmlns:xlink="http://www.w3.org/1999/xlink" x="0px" y="0px" viewBox="0 0 109 24"
	 style="enable-background:new 0 0 109 24;" xml:space="preserve">
<style type="text/css">
	.st0{fill:#FFFFFF;}
</style>
<title>Logo</title>
<g>
	<path class="st0" d="M28.9,12.5L25.8,8h1.9l2.3,3.4L32,8h1.9l-3.1,4.6l3.5,4.8h-1.9l-2.6-3.8l-2.5,3.8h-1.8
		C25.5,17.4,28.9,12.5,28.9,12.5z M37.8,21.9h-1.5V8.1l1.5-0.3v1.3c0.7-0.7,1.7-1.3,3-1.3c2.4,0,3.9,2,3.9,4.8
		c0,3.4-1.9,5.2-4.6,5.2c-0.8,0-1.8-0.3-2.3-0.5C37.8,17.3,37.8,21.9,37.8,21.9z M37.8,10.6v5.3c0.6,0.4,1.4,0.7,2.3,0.7
		c1.8,0,3-1.1,3-3.8c0-2.1-0.8-3.5-2.5-3.5C39.6,9.1,38.5,9.7,37.8,10.6z M46.5,12.8c0-2.9,1.6-5,4.5-5c2.9,0,4.5,2.2,4.5,5
		c0,3.1-1.8,5-4.5,5C48.4,17.8,46.5,15.8,46.5,12.8z M54,12.8C54,10.5,52.9,9,51,9c-1.8,0-2.9,1.4-2.9,3.8c0,2.2,1,3.8,2.9,3.8
		C53,16.6,54,15,54,12.8z M57.4,13c0-3.5,1.9-5.2,4.6-5.2c0.8,0,1.7,0.3,2.3,0.5v-5L65.8,3v14.5h-1.5v-1c-0.7,0.7-1.7,1.3-3,1.3
		C58.9,17.8,57.4,15.6,57.4,13z M64.3,15.1V9.8C63.8,9.5,63,9.2,62,9.2c-1.8,0-3.1,1.2-3.1,3.8c0,2.1,0.8,3.5,2.6,3.5
		C62.6,16.4,63.6,15.8,64.3,15.1z M68.4,4.7c0-0.6,0.5-1,1.1-1c0.6,0,1.1,0.5,1.1,1s-0.5,1-1.1,1C68.9,5.8,68.4,5.3,68.4,4.7z
		 M68.8,8.1l1.5-0.3v9.7h-1.5C68.8,17.5,68.8,8.1,68.8,8.1z M79.6,17.9v-1.4c-0.8,0.8-1.8,1.3-3.1,1.3c-2.4,0-3.8-2.1-3.8-4.8
		c0-3.5,2-5.2,4.6-5.2c1.4,0,2.7,0.4,3.8,0.9v9.4c0,2.8-1.6,4.1-4.7,4.1c-1,0-2.4-0.3-3.3-0.6l0.3-1.3c0.8,0.3,2.2,0.6,3.1,0.6
		C78.3,20.9,79.6,20.3,79.6,17.9L79.6,17.9z M79.6,15.1V9.7c-0.5-0.3-1.4-0.6-2.2-0.6c-2.2,0-3.1,1.6-3.1,3.8c0,2.1,0.8,3.5,2.5,3.5
		C77.9,16.4,79.1,15.6,79.6,15.1z M83.7,4.7c0-0.6,0.5-1,1.1-1c0.6,0,1.1,0.5,1.1,1s-0.5,1-1.1,1C84.1,5.8,83.7,5.3,83.7,4.7z
		 M84,8.1l1.5-0.3v9.7H84C84,17.5,84,8.1,84,8.1z M87.5,8.1h1.6l0.5-2.5h1v2.5h3.1v1.2h-3.1v5.7c0,0.9,0.3,1.4,1.2,1.4
		c0.5,0,1.4-0.3,1.8-0.5l0.2,1.2c-0.5,0.3-1.5,0.6-2.3,0.6c-1.7,0-2.4-0.8-2.4-2.7V9.3h-1.6V8.1z M103.3,17.5
		c-0.3,0.1-1,0.2-1.6,0.2c-0.8,0-1.1-0.3-1.2-1.2c-0.5,0.6-1.5,1.3-2.8,1.3c-1.4,0-2.6-0.8-2.6-2.3c0-2.5,3.4-3,5.3-3.4v-1.3
		c0-1-0.3-1.8-1.8-1.8c-1,0-2.2,0.4-3,0.8l-0.3-1.2c1.1-0.7,2.7-1,3.7-1c2,0,2.8,1,2.8,2.8v5.4c0,0.6,0.3,0.7,0.8,0.7h0.5
		L103.3,17.5L103.3,17.5z M97.9,16.5c1,0,2-0.7,2.7-1.4v-1.8c-2.2,0.4-3.8,1-3.8,2.2C96.7,16.1,97.2,16.5,97.9,16.5L97.9,16.5z
		 M105.5,3.4l1.5-0.3v14.5h-1.5V3.4z"/>
	<g>
		<path class="st0" d="M19.7,1.4c0-0.4-0.3-0.7-0.7-0.7L16.8,1v20.9l3.6,0.5c0.4,0,0.7-0.3,0.7-0.7L19.7,1.4z M1.7,19.8
			C2,17.1,2.8,14.7,4,12.4C2.6,9.5,1.7,6.3,1.7,2.9L0.2,3.1c-0.4,0-0.7,0.3-0.7,0.7l2.2,15.7C1.7,19.6,1.7,19.7,1.7,19.8z M6.7,16.6
			c-0.4,1.3-0.6,2.7-0.7,4l6.4,0.8C10.3,20.1,8.3,18.4,6.7,16.6z M8.3,12.5c1,2.1,2.5,4,4.1,5.6V6.9C10.8,8.5,9.4,10.4,8.3,12.5z
			 M12.4,3.6V1.5L6,2.4v0.3c0,2,0.3,3.8,0.7,5.6C8.4,6.5,10.3,4.8,12.4,3.6z"/>
		<g>
			<path class="st0" d="M-0.5,3.7L1,14.5c0.6-1.4,1.3-2.9,2.2-4.1C2.2,8.1,1.7,5.5,1.7,2.9L0.2,3.1C-0.2,3.1-0.5,3.3-0.5,3.7z
				 M12.4,1.5L6,2.4v0.3C6,4,6.1,5.3,6.3,6.6c1.8-1.7,3.8-3.1,6.1-4V1.5z M19.2,0.8c-0.1-0.1-0.1-0.1-0.3-0.1L16.8,1v0.2
				C17.5,1,18.4,0.9,19.2,0.8z"/>
		</g>
	</g>
</g>
</svg>
